# xmcd
#
# Track frame offsets: 
#        150
#        10120
#        17958
#        27935
#        39578
#        55253
#        67263
#        76683
#        92558
#        105573
#        116280
#        124258
#
# Disc length: 1875 seconds
#
# Revision: 3
# Processed by: cddbd v1.5.1PL2 Copyright (c) Steve Scherf et al.
# Submitted via: ExactAudioCopy v0.95b3
#
DISCID=9107510c,a007510c
DTITLE=SNFU - Better than a Stick in the Eye
DYEAR=1988
DGENRE=
TTITLE0=Time to buy a Futon
TTITLE1=G.I. Joe gets angry with the human kind
TTITLE2=The Quest for Fun
TTITLE3=Tears
TTITLE4=In the first Place
TTITLE5=Postman's Pet Peeve
TTITLE6=What good Holywood?
TTITLE7=The happy Switch
TTITLE8=Straightening out the Shelves (of my Mind)
TTITLE9=Thee Maul that heats Peephole
TTITLE10=Tour Tantrum
TTITLE11=Wild World
EXTD=
EXTT0=
EXTT1=
EXTT2=
EXTT3=
EXTT4=
EXTT5=
EXTT6=
EXTT7=
EXTT8=
EXTT9=
EXTT10=
EXTT11=
PLAYORDER=
